<?xml version="1.0" standalone="no"?>
<!DOCTYPE svg PUBLIC "-//W3C//DTD SVG 20010904//EN"
 "http://www.w3.org/TR/2001/REC-SVG-20010904/DTD/svg10.dtd">
<svg version="1.0" xmlns="http://www.w3.org/2000/svg"
 width="1000.000000pt" height="1000.000000pt" viewBox="0 0 1000.000000 1000.000000"
 preserveAspectRatio="xMidYMid meet">
<metadata>
Created by potrace 1.11, written by Peter Selinger 2001-2013
</metadata>
<g transform="translate(0.000000,1000.000000) scale(0.100000,-0.100000)"
fill="#000000" stroke="none">
<path d="M4690 9989 c-289 -16 -612 -67 -920 -145 -734 -186 -1382 -517 -1980
-1012 -148 -122 -500 -474 -622 -622 -495 -598 -826 -1246 -1012 -1980 -86
-342 -129 -631 -148 -996 -24 -490 25 -977 148 -1464 186 -734 517 -1382 1012
-1980 122 -148 474 -500 622 -622 598 -495 1246 -826 1980 -1012 342 -86 631
-129 996 -148 490 -24 977 25 1464 148 734 186 1382 517 1980 1012 148 122
500 474 622 622 495 598 826 1246 1012 1980 123 487 172 974 148 1464 -19 365
-62 654 -148 996 -186 734 -517 1382 -1012 1980 -122 148 -474 500 -622 622
-598 495 -1246 826 -1980 1012 -509 129 -1002 175 -1540 145z m2014 -2681 c6
-18 4 -46 -6 -90 -9 -34 -15 -64 -14 -65 0 0 105 -19 231 -42 393 -69 642
-157 855 -302 340 -231 411 -591 181 -909 -190 -262 -543 -500 -966 -650 -334
-118 -703 -193 -1078 -219 -70 -5 -131 -11 -134 -15 -16 -15 97 -482 172 -716
211 -650 571 -1239 834 -1364 60 -28 74 -31 166 -31 91 1 106 4 167 32 252
118 456 366 730 890 89 172 113 203 154 203 24 0 26 -3 21 -29 -16 -76 -268
-584 -377 -757 -136 -217 -262 -367 -371 -442 -295 -201 -635 -184 -924 48
-190 153 -340 349 -481 630 -165 330 -335 871 -444 1414 l-12 59 -137 -269
c-156 -307 -174 -339 -289 -524 -491 -788 -945 -1211 -1492 -1393 -326 -108
-734 -124 -1050 -41 -299 78 -485 259 -520 504 -20 142 20 240 155 376 72 74
105 98 165 127 119 56 178 68 346 74 159 6 255 -5 416 -46 125 -32 193 -63
196 -89 5 -36 -22 -37 -126 -4 -129 41 -227 55 -344 50 -88 -4 -106 -9 -172
-42 -127 -62 -232 -197 -256 -328 -30 -163 71 -356 226 -432 101 -50 165 -61
339 -61 226 1 387 36 570 125 165 80 397 262 605 477 150 154 257 293 478 627
243 364 286 439 897 1536 404 725 608 1044 852 1332 40 47 73 88 73 91 0 14
-496 30 -751 24 -315 -7 -438 -16 -739 -53 -708 -86 -1186 -232 -1555 -477
-114 -75 -158 -111 -269 -217 -233 -224 -361 -448 -395 -694 -16 -113 -14
-183 9 -270 29 -115 73 -189 165 -281 130 -131 235 -170 450 -170 155 0 219
15 351 80 202 99 430 369 463 550 12 66 20 79 47 73 17 -3 19 -13 18 -83 -5
-250 -219 -530 -519 -676 -136 -66 -231 -90 -388 -96 -293 -13 -490 65 -684
270 -226 238 -263 634 -95 1012 142 320 491 639 922 843 418 198 929 302 1730
353 340 22 975 1 1293 -42 l78 -10 52 52 c60 60 135 111 157 107 8 -2 19 -15
24 -30z"/>
<path d="M6555 6913 c-32 -54 -144 -237 -248 -408 -280 -457 -437 -719 -547
-911 -107 -185 -234 -424 -227 -424 2 0 28 4 56 10 29 5 156 19 284 30 455 39
577 59 774 125 489 163 946 572 1018 911 19 89 19 142 -1 218 -47 182 -171
307 -396 400 -105 43 -197 66 -428 106 -96 17 -187 33 -201 36 -24 5 -31 -3
-84 -93z"/>
</g>
</svg>
