<?xml version="1.0" standalone="no"?><!-- Generator: Gravit.io --><svg xmlns="http://www.w3.org/2000/svg" xmlns:xlink="http://www.w3.org/1999/xlink" style="isolation:isolate" viewBox="1 1 100 100" width="100" height="100"><path d=" M 1 51 C 1 23.404 23.404 1 51 1 C 78.596 1 101 23.404 101 51 C 101 78.596 78.596 101 51 101 C 23.404 101 1 78.596 1 51 Z  M 85.986 23.053 C 88.665 20.433 87.058 20.136 86.105 20.136 C 85.153 20.136 83.843 21.564 81.76 23.588 C 76.105 29.184 66.878 34.66 55.033 42.994 C 54.973 32.458 55.271 21.862 47.473 21.862 C 39.675 21.862 28.841 31.684 28.187 32.696 C 26.937 34.481 28.841 34.839 29.139 34.601 C 31.877 28.708 49.199 19.124 50.747 29.6 C 51.461 34.481 51.402 39.541 51.342 45.256 C 38.306 54.542 25.032 65.792 15.627 78.828 C 14.139 80.852 14.317 81.864 15.329 81.864 C 16.162 81.864 17.531 81.15 18.96 78.828 C 26.639 66.804 38.901 56.566 51.402 47.518 C 51.223 56.506 50.985 64.899 51.64 67.757 C 53.902 78.233 65.271 76.031 73.962 57.816 C 74.676 56.328 73.426 56.506 72.95 57.518 C 67.95 69.066 58.723 75.793 55.985 65.614 C 55.033 61.983 54.914 53.53 55.092 45.256 C 69.081 35.255 81.522 27.398 85.986 23.053 Z " fill-rule="evenodd" fill="rgb(255,255,255)"/></svg>