<?xml version="1.0" standalone="no"?><!-- Generator: Gravit.io --><svg xmlns="http://www.w3.org/2000/svg" xmlns:xlink="http://www.w3.org/1999/xlink" style="isolation:isolate" viewBox="0 0 1000 1000" width="1000" height="1000"><defs><clipPath id="_clipPath_51RSEiBsrRTWYUQoluQZ4kjfGXTPDRZQ"><rect width="1000" height="1000"/></clipPath></defs><g clip-path="url(#_clipPath_51RSEiBsrRTWYUQoluQZ4kjfGXTPDRZQ)"><circle vector-effect="non-scaling-stroke" cx="500.00000000000006" cy="499.99999999999994" r="500" fill="rgb(51,51,51)"/><path d=" M 742 706.138 L 742 706.138 L 742 706.138 Q 716.586 733.811 683.547 733.811 L 683.547 733.811 L 683.547 733.811 Q 650.509 733.811 620.012 701.902 L 620.012 701.902 L 620.012 701.902 Q 589.515 669.993 569.183 610.693 L 569.183 610.693 L 569.183 610.693 Q 548.852 551.393 540.945 504.518 L 540.945 504.518 L 540.945 504.518 Q 522.873 540.663 512.707 559.582 L 512.707 559.582 L 512.707 559.582 Q 502.541 578.502 482.775 607.869 L 482.775 607.869 L 482.775 607.869 Q 463.008 637.237 441.547 660.957 L 441.547 660.957 L 441.547 660.957 Q 374.905 732.682 290.756 732.682 L 290.756 732.682 L 290.756 732.682 Q 214.513 732.682 195.876 691.454 L 195.876 691.454 L 195.876 691.454 Q 191.358 681.853 191.358 669.146 L 191.358 669.146 L 191.358 669.146 Q 191.358 656.439 204.348 641.755 L 204.348 641.755 L 204.348 641.755 Q 225.244 618.6 261.953 618.6 L 261.953 618.6 L 261.953 618.6 Q 286.803 618.6 314.476 628.201 L 314.476 628.201 L 314.476 628.201 Q 321.818 631.025 320.124 634.413 L 320.124 634.413 L 320.124 634.413 Q 318.429 637.802 305.44 632.719 L 305.44 632.719 L 305.44 632.719 Q 292.45 627.636 274.096 627.636 L 274.096 627.636 L 274.096 627.636 Q 255.741 627.636 242.469 641.755 L 242.469 641.755 L 242.469 641.755 Q 229.197 655.874 229.197 671.123 L 229.197 671.123 L 229.197 671.123 Q 229.197 677.9 232.021 685.806 L 232.021 685.806 L 232.021 685.806 Q 243.316 715.174 285.108 715.174 L 285.108 715.174 L 285.108 715.174 Q 331.419 715.174 366.999 687.501 L 366.999 687.501 L 366.999 687.501 Q 387.33 671.687 403.708 655.309 L 403.708 655.309 L 403.708 655.309 Q 420.086 638.931 438.723 611.258 L 438.723 611.258 L 438.723 611.258 Q 468.091 568.901 488.705 532.474 L 488.705 532.474 L 488.705 532.474 Q 509.319 496.047 533.321 452.842 L 533.321 452.842 L 533.321 452.842 Q 557.323 409.638 568.618 389.872 L 568.618 389.872 L 568.618 389.872 Q 604.763 328.313 634.696 295.556 L 634.696 295.556 L 634.696 295.556 Q 603.069 292.733 571.442 292.733 L 571.442 292.733 L 571.442 292.733 Q 499.153 292.733 427.711 307.699 L 427.711 307.699 L 427.711 307.699 Q 356.268 322.665 314.476 357.115 L 314.476 357.115 L 314.476 357.115 Q 261.953 400.602 261.953 449.736 L 261.953 449.736 L 261.953 449.736 Q 261.953 473.456 278.896 491.811 L 278.896 491.811 L 278.896 491.811 Q 295.839 510.166 324.642 510.166 L 324.642 510.166 L 324.642 510.166 Q 359.657 510.166 382.812 485.316 L 382.812 485.316 L 382.812 485.316 Q 405.967 460.467 407.097 445.783 L 407.097 445.783 L 407.097 445.783 Q 407.662 438.441 410.485 438.441 L 410.485 438.441 L 410.485 438.441 Q 415.003 438.441 414.439 446.912 L 414.439 446.912 L 414.439 446.912 Q 410.485 474.021 392.413 492.658 L 392.413 492.658 L 392.413 492.658 Q 360.786 525.414 316.735 525.414 L 316.735 525.414 L 316.735 525.414 Q 283.414 525.414 258.847 502.824 L 258.847 502.824 L 258.847 502.824 Q 234.28 480.233 234.28 442.394 L 234.28 442.394 L 234.28 442.394 Q 234.28 386.483 288.779 342.149 L 288.779 342.149 L 288.779 342.149 Q 343.279 297.816 431.946 284.826 L 431.946 284.826 L 431.946 284.826 Q 495.2 275.79 548.569 275.79 L 548.569 275.79 L 548.569 275.79 Q 601.939 275.79 647.12 282.002 L 647.12 282.002 L 647.12 282.002 Q 661.804 266.189 667.452 266.189 L 667.452 266.189 L 667.452 266.189 Q 670.84 266.189 670.84 271.554 L 670.84 271.554 L 670.84 271.554 Q 670.84 276.919 668.016 284.826 L 668.016 284.826 L 668.016 284.826 Q 709.809 291.603 723.928 295.556 L 723.928 295.556 L 723.928 295.556 Q 808.642 320.406 808.642 372.364 L 808.642 372.364 L 808.642 372.364 Q 808.642 405.685 767.414 438.441 L 767.414 438.441 L 767.414 438.441 Q 715.456 478.539 628.483 492.658 L 628.483 492.658 L 628.483 492.658 Q 603.634 496.611 576.525 497.741 L 576.525 497.741 L 576.525 497.741 Q 594.597 597.704 639.214 666.04 L 639.214 666.04 L 639.214 666.04 Q 654.462 689.195 667.169 699.643 L 667.169 699.643 L 667.169 699.643 Q 679.876 710.091 694.56 710.091 L 694.56 710.091 L 694.56 710.091 Q 714.892 710.091 737.764 687.501 L 737.764 687.501 L 737.764 687.501 Q 760.637 664.91 790.57 605.046 L 790.57 605.046 L 790.57 605.046 Q 795.088 596.574 799.606 596.574 L 799.606 596.574 L 799.606 596.574 Q 804.124 596.574 800.171 605.046 L 800.171 605.046 L 800.171 605.046 Q 767.414 678.465 742 706.138 Z  M 767.979 363.893 L 767.979 363.893 L 767.979 363.893 Q 767.979 359.374 766.85 354.856 L 766.85 354.856 L 766.85 354.856 Q 760.637 323.23 716.586 309.675 L 716.586 309.675 L 716.586 309.675 Q 703.032 305.722 661.239 298.945 L 661.239 298.945 L 661.239 298.945 Q 651.074 316.453 611.54 380.835 L 611.54 380.835 L 611.54 380.835 Q 572.007 445.218 552.805 483.057 L 552.805 483.057 L 552.805 483.057 Q 565.23 480.798 589.232 478.821 L 589.232 478.821 L 589.232 478.821 Q 613.235 476.845 623.965 475.715 L 623.965 475.715 L 623.965 475.715 Q 688.348 467.809 733.529 425.452 L 733.529 425.452 L 733.529 425.452 Q 767.979 393.825 767.979 363.893 Z " fill-rule="evenodd" fill="rgb(255,255,255)"/></g></svg>